<svg width="20" height="20" viewBox="0 0 20 20" fill="none" xmlns="http://www.w3.org/2000/svg">
<g clip-path="url(#clip0_1821_4949)">
<path d="M3.075 5.83333H0V4.16667H2.875L3.075 5.83333ZM0 10.8333V12.5H3.85833L3.65833 10.8333H0ZM3.26667 7.5H0V9.16667H3.46667L3.26667 7.5ZM17.9917 12.5H7.20833L7.31667 13.4333C7.36667 13.85 7.725 14.1667 8.14167 14.1667H17.4917V15.8333H8.15C6.88333 15.8333 5.81667 14.8833 5.66667 13.625L4.34167 2.4C4.29167 1.98333 3.93333 1.66667 3.51667 1.66667H1.66667V0H3.51667C4.78333 0 5.85 0.95 6 2.20833L6.03333 2.5H19.9917L17.9917 12.5ZM17.9583 4.16667H6.23333L7.01667 10.8333H16.625L17.9583 4.16667ZM7.5 16.6667C6.58333 16.6667 5.83333 17.4167 5.83333 18.3333C5.83333 19.25 6.58333 20 7.5 20C8.41667 20 9.16667 19.25 9.16667 18.3333C9.16667 17.4167 8.41667 16.6667 7.5 16.6667ZM15 16.6667C14.0833 16.6667 13.3333 17.4167 13.3333 18.3333C13.3333 19.25 14.0833 20 15 20C15.9167 20 16.6667 19.25 16.6667 18.3333C16.6667 17.4167 15.9167 16.6667 15 16.6667Z" fill="white"/>
</g>
<defs>
<clipPath id="clip0_1821_4949">
<rect width="20" height="20" fill="white"/>
</clipPath>
</defs>
</svg>
