<svg width="24" height="24" viewBox="0 0 24 24" fill="none" xmlns="http://www.w3.org/2000/svg">
<path d="M14.25 2.25V21.75C14.25 21.9489 14.1446 22.1397 13.9571 22.2803C13.7696 22.421 13.5152 22.5 13.25 22.5C12.9848 22.5 12.7304 22.421 12.5429 22.2803C12.3554 22.1397 12.25 21.9489 12.25 21.75V2.25C12.25 2.05109 12.3554 1.86032 12.5429 1.71967C12.7304 1.57902 12.9848 1.5 13.25 1.5C13.5152 1.5 13.7696 1.57902 13.9571 1.71967C14.1446 1.86032 14.25 2.05109 14.25 2.25Z" fill="white"/>
<path d="M15.75 4H20.25C20.8467 4 21.419 4.22987 21.841 4.63904C22.2629 5.04821 22.5 5.60316 22.5 6.18182V17.8182C22.5 18.3968 22.2629 18.9518 21.841 19.361C21.419 19.7701 20.8467 20 20.25 20H15.75C15.5511 20 15.3603 19.9234 15.2197 19.787C15.079 19.6506 15 19.4656 15 19.2727C15 19.0798 15.079 18.8949 15.2197 18.7585C15.3603 18.6221 15.5511 18.5455 15.75 18.5455H20.25C20.4489 18.5455 20.6397 18.4688 20.7803 18.3324C20.921 18.1961 21 18.0111 21 17.8182V6.18182C21 5.98893 20.921 5.80395 20.7803 5.66756C20.6397 5.53117 20.4489 5.45455 20.25 5.45455H15.75C15.5511 5.45455 15.3603 5.37792 15.2197 5.24153C15.079 5.10514 15 4.92016 15 4.72727C15 4.53439 15.079 4.3494 15.2197 4.21301C15.3603 4.07662 15.5511 4 15.75 4Z" fill="white"/>
<path d="M4.52273 4H11.25V20H4.52273C4.19144 20.0001 3.86338 19.9437 3.55733 19.834C3.25128 19.7243 2.97325 19.5635 2.73916 19.3607C2.26573 18.952 2 18.3971 2 17.8182V6.18182C1.99989 5.8953 2.06512 5.61157 2.19195 5.34688C2.31879 5.08219 2.50474 4.84173 2.73916 4.63927C3.21175 4.22982 3.85336 4 4.52273 4Z" fill="white"/>
</svg>
