<svg width="24" height="24" viewBox="0 0 24 24" fill="none" xmlns="http://www.w3.org/2000/svg">
<path d="M9.75 2.25V21.75C9.75 21.9489 9.85536 22.1397 10.0429 22.2803C10.2304 22.421 10.4848 22.5 10.75 22.5C11.0152 22.5 11.2696 22.421 11.4571 22.2803C11.6446 22.1397 11.75 21.9489 11.75 21.75V2.25C11.75 2.05109 11.6446 1.86032 11.4571 1.71967C11.2696 1.57902 11.0152 1.5 10.75 1.5C10.4848 1.5 10.2304 1.57902 10.0429 1.71967C9.85536 1.86032 9.75 2.05109 9.75 2.25Z" fill="white"/>
<path d="M8.25 4H3.75C3.15326 4 2.58097 4.22987 2.15901 4.63904C1.73705 5.04821 1.5 5.60316 1.5 6.18182V17.8182C1.5 18.3968 1.73705 18.9518 2.15901 19.361C2.58097 19.7701 3.15326 20 3.75 20H8.25C8.44891 20 8.63968 19.9234 8.78033 19.787C8.92098 19.6506 9 19.4656 9 19.2727C9 19.0798 8.92098 18.8949 8.78033 18.7585C8.63968 18.6221 8.44891 18.5455 8.25 18.5455H3.75C3.55109 18.5455 3.36032 18.4688 3.21967 18.3324C3.07902 18.1961 3 18.0111 3 17.8182V6.18182C3 5.98893 3.07902 5.80395 3.21967 5.66756C3.36032 5.53117 3.55109 5.45455 3.75 5.45455H8.25C8.44891 5.45455 8.63968 5.37792 8.78033 5.24153C8.92098 5.10514 9 4.92016 9 4.72727C9 4.53439 8.92098 4.3494 8.78033 4.21301C8.63968 4.07662 8.44891 4 8.25 4Z" fill="white"/>
<path d="M19.4773 4H12.75V20H19.4773C19.8086 20.0001 20.1366 19.9437 20.4427 19.834C20.7487 19.7243 21.0267 19.5635 21.2608 19.3607C21.7343 18.952 22 18.3971 22 17.8182V6.18182C22.0001 5.8953 21.9349 5.61157 21.808 5.34688C21.6812 5.08219 21.4953 4.84173 21.2608 4.63927C20.7882 4.22982 20.1466 4 19.4773 4Z" fill="white"/>
</svg>
