<svg width="43" height="41" viewBox="0 0 43 41" fill="none" xmlns="http://www.w3.org/2000/svg">
<path d="M42.3019 20.3535C42.3019 25.7214 40.0777 30.5954 36.4578 34.1876C32.6292 37.9876 27.2388 40.3535 21.2674 40.3535C15.296 40.3535 9.90562 37.9876 6.07699 34.1876C2.45713 30.5953 0.23291 25.7214 0.23291 20.3535C0.23291 9.30794 9.6505 0.353516 21.2674 0.353516C32.8843 0.353516 42.3019 9.30794 42.3019 20.3535Z" fill="#E7E7E7"/>
<path d="M21.267 21.427C26.0128 21.427 29.8601 17.7689 29.8601 13.2565C29.8601 8.744 26.0128 5.08594 21.267 5.08594C16.5211 5.08594 12.6738 8.744 12.6738 13.2565C12.6738 17.7689 16.5211 21.427 21.267 21.427Z" fill="#B0B6B7"/>
<path d="M37.3585 33.3289C37.1713 33.5291 36.9798 33.726 36.7841 33.9191C32.8731 37.7809 27.367 40.1853 21.2672 40.1853C15.1673 40.1853 9.6612 37.7809 5.75023 33.9191C5.55459 33.7261 5.36303 33.5291 5.17578 33.3289C8.05407 27.6631 14.178 23.752 21.2672 23.752C28.3563 23.752 34.4803 27.6631 37.3585 33.3289Z" fill="#B0B6B7"/>
</svg>
