<svg width="20" height="20" viewBox="0 0 20 20" fill="none" xmlns="http://www.w3.org/2000/svg">
<path d="M18.3808 4.3584L12.2358 1.4309C10.8831 0.622927 9.19953 0.608591 7.83328 1.3934L1.61914 4.3584C1.59582 4.37008 1.57164 4.38258 1.54914 4.3959C0.0744497 5.2391 -0.437504 7.11812 0.4057 8.59281C0.69152 9.09273 1.11195 9.50234 1.61914 9.77508L3.33332 10.5918V14.6751C3.33433 16.501 4.52242 18.1141 6.26582 18.6568C7.47906 19.0077 8.73707 19.1796 10 19.1668C11.2627 19.1809 12.5207 19.0105 13.7342 18.6609C15.4776 18.1183 16.6657 16.5052 16.6667 14.6793V10.5901L18.3334 9.7934V16.6667C18.3334 17.1269 18.7064 17.5 19.1667 17.5C19.6269 17.5 20 17.1269 20 16.6667V6.66672C20.0055 5.68816 19.2329 4.78418 18.3808 4.3584ZM15 14.6793C15.0004 15.7714 14.2918 16.7375 13.25 17.0651C12.1935 17.367 11.0987 17.5135 9.99996 17.5001C8.90125 17.5135 7.80644 17.367 6.74996 17.0651C5.70812 16.7374 4.99953 15.7714 4.99996 14.6793V11.3859L7.76414 12.7026C8.44617 13.1076 9.22511 13.3204 10.0183 13.3184C10.7733 13.3238 11.5156 13.1239 12.1658 12.7401L15 11.3859V14.6793ZM17.6666 8.2709L11.3816 11.2709C10.5053 11.7812 9.4191 11.7667 8.55664 11.2334L2.40746 8.3084C1.72203 7.93879 1.46601 7.08351 1.83562 6.39812C1.96062 6.16633 2.14804 5.97418 2.37664 5.8434L8.62246 2.86008C9.49906 2.35093 10.5847 2.36535 11.4475 2.89758L17.5925 5.82508C18.0444 6.07601 18.3271 6.54988 18.3333 7.06675C18.3341 7.55636 18.082 8.01168 17.6666 8.2709Z" fill="white"/>
</svg>
