<svg width="40" height="40" viewBox="0 0 40 40" fill="none" xmlns="http://www.w3.org/2000/svg">
<circle cx="20" cy="20" r="20" fill="white"/>
<g clip-path="url(#clip0_1824_6522)">
<path d="M30.555 21.6617L28.655 14.8257C28.0981 12.823 26.8877 11.064 25.2163 9.82816C23.5449 8.59234 21.5084 7.95068 19.4304 8.00516C17.3525 8.05964 15.3524 8.80714 13.748 10.1288C12.1437 11.4505 11.0272 13.2706 10.576 15.2997L9.10498 21.9147C8.9425 22.6456 8.94625 23.4037 9.11597 24.133C9.2857 24.8623 9.61705 25.5442 10.0856 26.1282C10.5541 26.7123 11.1478 27.1837 11.8229 27.5076C12.498 27.8316 13.2372 27.9997 13.986 27.9997H15.1C15.3295 29.13 15.9427 30.1462 16.8357 30.8761C17.7287 31.606 18.8466 32.0047 20 32.0047C21.1533 32.0047 22.2712 31.606 23.1642 30.8761C24.0573 30.1462 24.6705 29.13 24.9 27.9997H25.738C26.5088 27.9997 27.2692 27.8216 27.9597 27.4791C28.6503 27.1367 29.2523 26.6392 29.7188 26.0256C30.1853 25.4119 30.5036 24.6987 30.6488 23.9417C30.794 23.1847 30.7612 22.4044 30.555 21.6617ZM20 29.9997C19.3817 29.9971 18.7794 29.8036 18.2753 29.4456C17.7712 29.0876 17.3901 28.5826 17.184 27.9997H22.816C22.6099 28.5826 22.2288 29.0876 21.7247 29.4456C21.2206 29.8036 20.6182 29.9971 20 29.9997ZM28.126 24.8147C27.8473 25.1844 27.4863 25.4839 27.0716 25.6897C26.6569 25.8954 26.1999 26.0015 25.737 25.9997H13.986C13.5368 25.9996 13.0933 25.8987 12.6883 25.7043C12.2833 25.5099 11.9272 25.227 11.6461 24.8766C11.3651 24.5261 11.1663 24.1171 11.0645 23.6795C10.9627 23.242 10.9605 22.7872 11.058 22.3487L12.528 15.7327C12.8823 14.1389 13.7593 12.7093 15.0194 11.6711C16.2796 10.633 17.8506 10.0459 19.4828 10.0031C21.1149 9.96035 22.7145 10.4644 24.0273 11.4352C25.3401 12.4059 26.2907 13.7876 26.728 15.3607L28.628 22.1967C28.7535 22.6421 28.7735 23.1106 28.6864 23.565C28.5992 24.0195 28.4074 24.4473 28.126 24.8147Z" fill="#2B2A28"/>
</g>
<rect x="20" y="6" width="12" height="12" rx="6" fill="white"/>
<circle cx="26" cy="12" r="4" fill="#EC555A"/>
<defs>
<clipPath id="clip0_1824_6522">
<rect width="24" height="24" fill="white" transform="translate(8 8)"/>
</clipPath>
</defs>
</svg>
