<svg width="20" height="20" viewBox="0 0 20 20" fill="none" xmlns="http://www.w3.org/2000/svg">
<g clip-path="url(#clip0_1847_12335)">
<path d="M10 6.66675C9.34075 6.66675 8.69629 6.86224 8.14812 7.22852C7.59996 7.59479 7.17272 8.11538 6.92042 8.72447C6.66813 9.33356 6.60212 10.0038 6.73074 10.6504C6.85935 11.297 7.17682 11.8909 7.643 12.3571C8.10917 12.8233 8.70312 13.1407 9.34972 13.2694C9.99632 13.398 10.6665 13.332 11.2756 13.0797C11.8847 12.8274 12.4053 12.4001 12.7716 11.852C13.1379 11.3038 13.3334 10.6594 13.3334 10.0001C13.3334 9.11603 12.9822 8.26818 12.357 7.64306C11.7319 7.01794 10.8841 6.66675 10 6.66675ZM10 11.6667C9.67039 11.6667 9.34815 11.569 9.07407 11.3859C8.79999 11.2027 8.58637 10.9424 8.46022 10.6379C8.33408 10.3333 8.30107 9.99823 8.36538 9.67493C8.42969 9.35163 8.58842 9.05466 8.82151 8.82157C9.0546 8.58848 9.35157 8.42975 9.67487 8.36544C9.99817 8.30113 10.3333 8.33414 10.6378 8.46028C10.9424 8.58643 11.2027 8.80005 11.3858 9.07413C11.5689 9.34821 11.6667 9.67045 11.6667 10.0001C11.6667 10.4421 11.4911 10.866 11.1785 11.1786C10.866 11.4912 10.442 11.6667 10 11.6667Z" fill="white"/>
<path d="M17.745 11.5833L17.375 11.37C17.5416 10.4637 17.5416 9.53463 17.375 8.62833L17.745 8.415C18.0295 8.25085 18.2789 8.03226 18.479 7.77172C18.679 7.51118 18.8258 7.21378 18.9109 6.89651C18.996 6.57925 19.0178 6.24832 18.9751 5.92263C18.9323 5.59694 18.8258 5.28286 18.6616 4.99833C18.4975 4.7138 18.2789 4.46439 18.0184 4.26434C17.7578 4.06428 17.4604 3.91751 17.1432 3.83239C16.8259 3.74726 16.495 3.72547 16.1693 3.76824C15.8436 3.81101 15.5295 3.91751 15.245 4.08167L14.8741 4.29583C14.1738 3.69743 13.3689 3.23354 12.5 2.9275V2.5C12.5 1.83696 12.2366 1.20107 11.7677 0.732233C11.2989 0.263392 10.663 0 9.99998 0C9.33693 0 8.70105 0.263392 8.23221 0.732233C7.76337 1.20107 7.49998 1.83696 7.49998 2.5V2.9275C6.63113 3.23464 5.82651 3.69967 5.12664 4.29917L4.75414 4.08333C4.17951 3.75181 3.49671 3.66214 2.85596 3.83405C2.21521 4.00596 1.669 4.42536 1.33747 5C1.00595 5.57464 0.916285 6.25743 1.08819 6.89818C1.2601 7.53893 1.67951 8.08515 2.25414 8.41667L2.62414 8.63C2.45757 9.5363 2.45757 10.4654 2.62414 11.3717L2.25414 11.585C1.67951 11.9165 1.2601 12.4627 1.08819 13.1035C0.916285 13.7442 1.00595 14.427 1.33747 15.0017C1.669 15.5763 2.21521 15.9957 2.85596 16.1676C3.49671 16.3395 4.17951 16.2499 4.75414 15.9183L5.12498 15.7042C5.82561 16.3027 6.63079 16.7666 7.49998 17.0725V17.5C7.49998 18.163 7.76337 18.7989 8.23221 19.2678C8.70105 19.7366 9.33693 20 9.99998 20C10.663 20 11.2989 19.7366 11.7677 19.2678C12.2366 18.7989 12.5 18.163 12.5 17.5V17.0725C13.3688 16.7654 14.1734 16.3003 14.8733 15.7008L15.2458 15.9158C15.8204 16.2474 16.5032 16.337 17.144 16.1651C17.7847 15.9932 18.331 15.5738 18.6625 14.9992C18.994 14.4245 19.0837 13.7417 18.9118 13.101C18.7398 12.4602 18.3204 11.914 17.7458 11.5825L17.745 11.5833ZM15.6216 8.43667C15.9038 9.45922 15.9038 10.5391 15.6216 11.5617C15.5724 11.7396 15.5836 11.9289 15.6536 12.0998C15.7236 12.2707 15.8484 12.4135 16.0083 12.5058L16.9116 13.0275C17.1032 13.138 17.2429 13.3201 17.3002 13.5336C17.3575 13.7472 17.3276 13.9747 17.2171 14.1663C17.1066 14.3578 16.9245 14.4975 16.7109 14.5548C16.4974 14.6121 16.2698 14.5822 16.0783 14.4717L15.1733 13.9483C15.0132 13.8556 14.8268 13.8188 14.6435 13.8437C14.4602 13.8686 14.2904 13.9538 14.1608 14.0858C13.4191 14.843 12.4846 15.3833 11.4583 15.6483C11.2792 15.6944 11.1204 15.7987 11.0071 15.9449C10.8938 16.0911 10.8324 16.2709 10.8325 16.4558V17.5C10.8325 17.721 10.7447 17.933 10.5884 18.0893C10.4321 18.2455 10.2202 18.3333 9.99914 18.3333C9.77813 18.3333 9.56617 18.2455 9.40989 18.0893C9.25361 17.933 9.16581 17.721 9.16581 17.5V16.4567C9.1659 16.2717 9.10445 16.092 8.99115 15.9458C8.87784 15.7996 8.71911 15.6952 8.53998 15.6492C7.5136 15.3831 6.57942 14.8416 5.83831 14.0833C5.70875 13.9513 5.53892 13.8661 5.3556 13.8412C5.17229 13.8163 4.9859 13.8531 4.82581 13.9458L3.92247 14.4683C3.82767 14.5239 3.7228 14.5602 3.61391 14.5751C3.50503 14.59 3.39427 14.5832 3.28802 14.5551C3.18177 14.527 3.08213 14.4782 2.99483 14.4114C2.90752 14.3446 2.83429 14.2613 2.77934 14.1661C2.72439 14.0709 2.6888 13.9658 2.67464 13.8568C2.66047 13.7479 2.66801 13.6372 2.6968 13.5311C2.72559 13.425 2.77508 13.3257 2.84242 13.2389C2.90975 13.152 2.9936 13.0793 3.08914 13.025L3.99247 12.5033C4.15243 12.411 4.2772 12.2682 4.34719 12.0973C4.41718 11.9264 4.42842 11.7371 4.37914 11.5592C4.09694 10.5366 4.09694 9.45672 4.37914 8.43417C4.42753 8.25657 4.41575 8.06795 4.34565 7.89774C4.27555 7.72754 4.15107 7.58534 3.99164 7.49333L3.08831 6.97167C2.8968 6.86116 2.75703 6.6791 2.69976 6.46555C2.64248 6.25199 2.67238 6.02442 2.78289 5.83292C2.8934 5.64141 3.07546 5.50164 3.28901 5.44437C3.50257 5.38709 3.73013 5.41699 3.92164 5.5275L4.82664 6.05083C4.98629 6.14376 5.17229 6.18101 5.35541 6.15672C5.53854 6.13244 5.7084 6.048 5.83831 5.91667C6.58005 5.15945 7.5145 4.61918 8.54081 4.35417C8.7205 4.30797 8.87964 4.20313 8.993 4.05625C9.10637 3.90938 9.16748 3.72887 9.16664 3.54333V2.5C9.16664 2.27899 9.25444 2.06702 9.41072 1.91074C9.567 1.75446 9.77896 1.66667 9.99998 1.66667C10.221 1.66667 10.433 1.75446 10.5892 1.91074C10.7455 2.06702 10.8333 2.27899 10.8333 2.5V3.54333C10.8332 3.7283 10.8947 3.90804 11.008 4.05423C11.1213 4.20043 11.28 4.30478 11.4591 4.35083C12.4858 4.61679 13.4203 5.15824 14.1616 5.91667C14.2912 6.04872 14.461 6.13391 14.6443 6.15881C14.8277 6.1837 15.0141 6.14689 15.1741 6.05417L16.0775 5.53167C16.1723 5.47609 16.2772 5.43981 16.386 5.42492C16.4949 5.41003 16.6057 5.41683 16.7119 5.44492C16.8182 5.47301 16.9178 5.52184 17.0051 5.58859C17.0924 5.65535 17.1657 5.73872 17.2206 5.83389C17.2756 5.92907 17.3111 6.03417 17.3253 6.14316C17.3395 6.25214 17.3319 6.36285 17.3032 6.46891C17.2744 6.57497 17.2249 6.67429 17.1575 6.76114C17.0902 6.848 17.0063 6.92068 16.9108 6.975L16.0075 7.49667C15.8483 7.58892 15.7242 7.73123 15.6544 7.90141C15.5846 8.07159 15.5731 8.26008 15.6216 8.4375V8.43667Z" fill="white"/>
</g>
<defs>
<clipPath id="clip0_1847_12335">
<rect width="20" height="20" fill="white"/>
</clipPath>
</defs>
</svg>
